<svg width="20" height="20" viewBox="0 0 20 20" fill="none" xmlns="http://www.w3.org/2000/svg">
<g clip-path="url(#clip0_4047_164)">
<path d="M3.33398 18.3333C3.33398 16.5651 4.03636 14.8694 5.28661 13.6192C6.53685 12.369 8.23254 11.6666 10.0007 11.6666C11.7688 11.6666 13.4645 12.369 14.7147 13.6192C15.9649 14.8694 16.6673 16.5651 16.6673 18.3333H15.0007C15.0007 17.0072 14.4739 15.7354 13.5362 14.7977C12.5985 13.86 11.3267 13.3333 10.0007 13.3333C8.67457 13.3333 7.4028 13.86 6.46512 14.7977C5.52744 15.7354 5.00065 17.0072 5.00065 18.3333H3.33398ZM10.0007 10.8333C7.23815 10.8333 5.00065 8.59575 5.00065 5.83325C5.00065 3.07075 7.23815 0.833252 10.0007 0.833252C12.7632 0.833252 15.0007 3.07075 15.0007 5.83325C15.0007 8.59575 12.7632 10.8333 10.0007 10.8333ZM10.0007 9.16658C11.8423 9.16658 13.334 7.67492 13.334 5.83325C13.334 3.99159 11.8423 2.49992 10.0007 2.49992C8.15898 2.49992 6.66732 3.99159 6.66732 5.83325C6.66732 7.67492 8.15898 9.16658 10.0007 9.16658Z" fill="#727488"/>
</g>
<defs>
<clipPath id="clip0_4047_164">
<rect width="20" height="20" fill="white"/>
</clipPath>
</defs>
</svg>
