<svg width="27" height="26" viewBox="0 0 27 26" fill="none" xmlns="http://www.w3.org/2000/svg">
<g clip-path="url(#clip0_102_1803)">
<path d="M13.3799 9.83078C12.5394 9.83078 11.7334 10.1647 11.139 10.759C10.5447 11.3533 10.2108 12.1593 10.2108 12.9998C10.2108 13.8403 10.5447 14.6464 11.139 15.2407C11.7334 15.835 12.5394 16.1689 13.3799 16.1689C14.2204 16.1689 15.0264 15.835 15.6208 15.2407C16.2151 14.6464 16.5489 13.8403 16.5489 12.9998C16.5489 12.1593 16.2151 11.3533 15.6208 10.759C15.0264 10.1647 14.2204 9.83078 13.3799 9.83078ZM13.3799 7.71809C14.7807 7.71809 16.1241 8.27455 17.1147 9.26507C18.1052 10.2556 18.6616 11.599 18.6616 12.9998C18.6616 14.4006 18.1052 15.7441 17.1147 16.7346C16.1241 17.7251 14.7807 18.2816 13.3799 18.2816C11.9791 18.2816 10.6357 17.7251 9.64514 16.7346C8.65462 15.7441 8.09815 14.4006 8.09815 12.9998C8.09815 11.599 8.65462 10.2556 9.64514 9.26507C10.6357 8.27455 11.9791 7.71809 13.3799 7.71809ZM20.2462 7.454C20.2462 7.8042 20.107 8.14006 19.8594 8.38769C19.6118 8.63532 19.2759 8.77444 18.9257 8.77444C18.5755 8.77444 18.2397 8.63532 17.992 8.38769C17.7444 8.14006 17.6053 7.8042 17.6053 7.454C17.6053 7.1038 17.7444 6.76794 17.992 6.52031C18.2397 6.27268 18.5755 6.13356 18.9257 6.13356C19.2759 6.13356 19.6118 6.27268 19.8594 6.52031C20.107 6.76794 20.2462 7.1038 20.2462 7.454ZM13.3799 4.54904C10.7665 4.54904 10.3397 4.55643 9.12387 4.61031C8.29569 4.64939 7.74005 4.76031 7.22455 4.96101C6.7661 5.13848 6.43546 5.35081 6.08369 5.70363C5.75306 6.02307 5.49885 6.41305 5.34002 6.84449C5.13932 7.3621 5.0284 7.91668 4.99037 8.7438C4.93544 9.91001 4.9291 10.3178 4.9291 12.9998C4.9291 15.6132 4.9365 16.04 4.99037 17.2559C5.02946 18.083 5.14037 18.6397 5.34002 19.1541C5.5196 19.6136 5.73087 19.9443 6.08158 20.295C6.43757 20.6499 6.76821 20.8622 7.22244 21.0376C7.74427 21.2394 8.29991 21.3513 9.12387 21.3894C10.2901 21.4443 10.6978 21.4506 13.3799 21.4506C15.9933 21.4506 16.4201 21.4432 17.6359 21.3894C18.462 21.3503 19.0187 21.2394 19.5342 21.0397C19.9916 20.8612 20.3243 20.6489 20.675 20.2981C21.031 19.9422 21.2434 19.6115 21.4187 19.1573C21.6194 18.6365 21.7314 18.0798 21.7694 17.2559C21.8244 16.0897 21.8307 15.6819 21.8307 12.9998C21.8307 10.3864 21.8233 9.95966 21.7694 8.7438C21.7303 7.91774 21.6194 7.35998 21.4187 6.84449C21.2595 6.4135 21.0058 6.02366 20.6761 5.70363C20.3568 5.37283 19.9668 5.11859 19.5352 4.95996C19.0176 4.75925 18.462 4.64834 17.6359 4.61031C16.4697 4.55538 16.062 4.54904 13.3799 4.54904ZM13.3799 2.43634C16.25 2.43634 16.6081 2.4469 17.7342 2.49972C18.8592 2.55254 19.625 2.72895 20.299 2.99092C20.9962 3.25924 21.5835 3.62262 22.1708 4.20889C22.708 4.73696 23.1236 5.37573 23.3888 6.08074C23.6497 6.75364 23.8272 7.52055 23.88 8.64556C23.9297 9.77163 23.9434 10.1297 23.9434 12.9998C23.9434 15.8699 23.9328 16.228 23.88 17.3541C23.8272 18.4791 23.6497 19.245 23.3888 19.9189C23.1244 20.6243 22.7086 21.2632 22.1708 21.7908C21.6426 22.3277 21.0039 22.7433 20.299 23.0087C19.6261 23.2697 18.8592 23.4471 17.7342 23.4999C16.6081 23.5496 16.25 23.5633 13.3799 23.5633C10.5098 23.5633 10.1517 23.5528 9.02563 23.4999C7.90061 23.4471 7.13476 23.2697 6.46081 23.0087C5.75551 22.7441 5.11664 22.3284 4.58896 21.7908C4.05171 21.2628 3.63606 20.624 3.37099 19.9189C3.10902 19.246 2.9326 18.4791 2.87979 17.3541C2.83014 16.228 2.81641 15.8699 2.81641 12.9998C2.81641 10.1297 2.82697 9.77163 2.87979 8.64556C2.9326 7.51949 3.10902 6.7547 3.37099 6.08074C3.63533 5.37529 4.05107 4.73635 4.58896 4.20889C5.11679 3.67146 5.75562 3.25578 6.46081 2.99092C7.13476 2.72895 7.89956 2.55254 9.02563 2.49972C10.1517 2.45007 10.5098 2.43634 13.3799 2.43634Z" fill="#C0C2D7"/>
</g>
<defs>
<clipPath id="clip0_102_1803">
<rect width="25.3524" height="25.3524" fill="white" transform="translate(0.705078 0.323792)"/>
</clipPath>
</defs>
</svg>
