<svg width="24" height="24" viewBox="0 0 24 24" fill="none" xmlns="http://www.w3.org/2000/svg">
<g clip-path="url(#clip0_102_2012)">
<path d="M18.033 16.617L22.316 20.899L20.901 22.314L16.619 18.031C15.0257 19.3082 13.044 20.0029 11.002 20C6.03395 20 2.00195 15.968 2.00195 11C2.00195 6.032 6.03395 2 11.002 2C15.97 2 20.002 6.032 20.002 11C20.0049 13.042 19.3102 15.0237 18.033 16.617ZM16.027 15.875C17.2961 14.5699 18.0048 12.8204 18.002 11C18.002 7.132 14.869 4 11.002 4C7.13395 4 4.00195 7.132 4.00195 11C4.00195 14.867 7.13395 18 11.002 18C12.8224 18.0029 14.5718 17.2941 15.877 16.025L16.027 15.875Z" fill="#333333"/>
</g>
<defs>
<clipPath id="clip0_102_2012">
<rect width="24" height="24" fill="white"/>
</clipPath>
</defs>
</svg>
